inDegrees=yes
name=ik_lifting_orientations
DataType=double
version=3
OpenSimVersion=4.5-2024-01-10-34fd6af
endheader
time	pelvis_tilt	pelvis_list	pelvis_rotation	pelvis_tx	pelvis_ty	pelvis_tz	hip_flexion_r	hip_adduction_r	hip_rotation_r	knee_angle_r	knee_angle_r_beta	ankle_angle_r	subtalar_angle_r	mtp_angle_r	hip_flexion_l	hip_adduction_l	hip_rotation_l	knee_angle_l	knee_angle_l_beta	ankle_angle_l	subtalar_angle_l	mtp_angle_l	lumbar_extension	lumbar_bending	lumbar_rotation	arm_flex_r	arm_add_r	arm_rot_r	elbow_flex_r	pro_sup_r	wrist_flex_r	wrist_dev_r	arm_flex_l	arm_add_l	arm_rot_l	elbow_flex_l	pro_sup_l	wrist_flex_l	wrist_dev_l
2.08	-1.048260956121704	-10.00517103551043	-75.56038983661242	0	0.9399999998679526	0	44.99851711234891	-10.00547192610926	0	59.99922092107744	1.047183953704266	-5.000668483574925	0	0	44.99851711234891	-10.00547192610926	0	59.99922092107744	1.047183953704266	-5.000668483574925	0	0	-11.86732732033908	3.733784534737756	1.877772626459105	34.00748123215502	-17.38685570498269	-1.895001969815828	70.71675317426039	0.6720876596912034	0	0	0	-13.26175966884122	0	89.34109039881896	0.6720876596912034	0	0
2.09	-1.022992663631418	-10.13328923941018	-75.59661709506679	0	0.9399999998679526	0	44.99851760983641	-10.00546549558016	0	59.9992211627178	1.047183957921686	-5.000667458077525	0	0	44.99851760983641	-10.00546549558016	0	59.9992211627178	1.047183957921686	-5.000667458077525	0	0	-11.70477207449826	3.683496595926073	1.832229188859386	34.7669840565365	-16.85969272214122	-1.547783909526616	70.99966965742802	0.6719309001549885	0	0	0	-13.26205780993041	0	89.34124404332725	0.6719309001549885	0	0
2.1	-1.026889678251151	-10.20467443291568	-75.68299660500988	0	0.9399999998679526	0	44.99851782489181	-10.00546272670972	0	59.99922126745982	1.047183959749779	-5.000667016916191	0	0	44.99851782489181	-10.00546272670972	0	59.99922126745982	1.047183959749779	-5.000667016916191	0	0	-11.45605923237896	3.632237933744596	1.973040147199612	35.42717687179779	-16.53236708249358	-1.39147642785813	71.3355462609922	0.6718630607158246	0	0	0	-13.26218695294477	0	89.34131053470338	0.6718630607158246	0	0
2.11	-1.008646649278071	-10.26091170187184	-75.67549720995129	0	0.9399999998679526	0	44.9985182822079	-10.0054568226641	0	59.9992214896204	1.047183963627213	-5.000666075858314	0	0	44.9985182822079	-10.0054568226641	0	59.9992214896204	1.047183963627213	-5.000666075858314	0	0	-11.182333988125	3.570013406083545	1.869644763397045	36.21205082647903	-16.06441320776795	-1.157004371983816	71.42028636203082	0.6717189363167745	0	0	0	-13.2624610907969	0	89.34145179515217	0.6717189363167745	0	0
2.12	-0.999049913167092	-10.32080090071899	-75.67185340381057	0	0.9399999998679526	0	44.99851875214071	-10.00545075963205	0	59.99922171790053	1.047183967611453	-5.00066510975533	0	0	44.99851875214071	-10.00545075963205	0	59.99922171790053	1.047183967611453	-5.00066510975533	0	0	-10.90262212192085	3.520949023593759	1.785539474922014	37.07157403611453	-15.67536628813804	-0.9937097995308583	71.42605164487985	0.6715708279186835	0	0	0	-13.26274281258543	0	89.3415969604325	0.6715708279186835	0	0
2.13	-0.9866558135623668	-10.38770919125229	-75.73450231478917	0	0.9399999998679526	0	44.99851921271792	-10.00544482371105	0	59.99922194170755	1.047183971517622	-5.000664164272281	0	0	44.99851921271792	-10.00544482371105	0	59.99922194170755	1.047183971517622	-5.000664164272281	0	0	-10.72608057755533	3.473607995970968	1.693186682172661	37.95252926906883	-15.24317817248389	-0.5974170602953979	71.80581328669095	0.6714256404780835	0	0	0	-13.26301901669594	0	89.34173926279892	0.6714256404780835	0	0
2.14	-0.9854175409054583	-10.35931607731005	-75.79975246062467	0	0.9399999998679526	0	44.99851959774689	-10.00543986855065	0	59.99922212891413	1.047183974784993	-5.000663375367782	0	0	44.99851959774689	-10.00543986855065	0	59.99922212891413	1.047183974784993	-5.000663375367782	0	0	-10.46192519585613	3.416694703482322	1.691528260234186	38.7238165697261	-14.83022553000934	-0.1358577544589518	72.72862378307109	0.6713042322308436	0	0	0	-13.26325003577691	0	89.34185825849738	0.6713042322308436	0	0
2.15	-0.9798987518593758	-10.3313703214587	-75.85594642838502	0	0.9399999998679526	0	44.99852000670145	-10.00543460719272	0	59.99922232771513	1.047183978254725	-5.000662537891236	0	0	44.99852000670145	-10.00543460719272	0	59.99922232771513	1.047183978254725	-5.000662537891236	0	0	-10.12095388281848	3.348148984103006	1.593783041592994	39.46396340701222	-14.28588682291854	0.3633777704877419	73.46727242020565	0.6711752820488796	0	0	0	-13.26349539738829	0	89.34198464626191	0.6711752820488796	0	0
2.16	-0.9848562756327477	-10.32449825939902	-75.79377992501109	0	0.9399999998679526	0	44.99852043580871	-10.00542909072284	0	59.99922253633542	1.047183981895836	-5.000661660078014	0	0	44.99852043580871	-10.00542909072284	0	59.99922253633542	1.047183981895836	-5.000661660078014	0	0	-9.926278596925332	3.325145116629753	1.336139004200284	40.3019759195502	-13.7826809238043	0.7820197238403229	73.88320937287685	0.6710399633112173	0	0	0	-13.2637528943912	0	89.34211727603022	0.6710399633112173	0	0
2.17	-0.9824104177994165	-10.31614583328352	-75.85646343405298	0	0.9399999998679526	0	44.99852086638635	-10.00542355857616	0	59.99922274565892	1.04718398554922	-5.00066078002027	0	0	44.99852086638635	-10.00542355857616	0	59.99922274565892	1.04718398554922	-5.00066078002027	0	0	-9.729699543081139	3.274529488850533	1.277025720393543	41.19971786369383	-13.27340521562673	0.9740312484082526	73.70305807738191	0.6709041749832994	0	0	0	-13.26401128887661	0	89.34225036605754	0.6709041749832994	0	0
